<svg xmlns="http://www.w3.org/2000/svg" width="32" height="32" viewBox="0 0 32 32" fill="none">
  <mask id="a" maskUnits="userSpaceOnUse" x="4" y="6" width="24" height="20">
    <path d="M5.188 8.739l6.636 10.256c.337.52 1.031.669 1.552.332l6.147-3.977c.238-.154.546-.149.779.012l6.929 4.778c1.01.697 2.246-.502 1.579-1.533l-6.636-10.255c-.337-.521-1.032-.67-1.552-.333l-6.147 3.977a.785.785 0 01-.779-.012l-6.928-4.777c-1.011-.698-2.247.502-1.58 1.532z" fill="white"/>
  </mask>
  <g mask="url(#a)">
    <g filter="url(#b)">
      <circle cx="23.75" cy="14.75" r="7.75" fill="#3287FE"/>
    </g>
    <g filter="url(#c)">
      <circle cy="17.25" r="7.75" fill="#13B962"/>
    </g>
    <g filter="url(#d)">
      <circle cx="4.5" cy="8.25" r="7.75" fill="#F6BE11"/>
    </g>
    <g filter="url(#e)">
      <circle cx="14.75" cy="4.5" r="7.75" fill="#FA4442"/>
    </g>
  </g>
  <defs>
    <filter id="b" x="9.35" y="0.35" width="28.05" height="28.05" filterUnits="userSpaceOnUse">
      <feGaussianBlur stdDeviation="3.325"/>
    </filter>
    <filter id="c" x="-14.4" y="2.85" width="28.05" height="28.05" filterUnits="userSpaceOnUse">
      <feGaussianBlur stdDeviation="3.325"/>
    </filter>
    <filter id="d" x="-9.9" y="-6.15" width="28.05" height="28.05" filterUnits="userSpaceOnUse">
      <feGaussianBlur stdDeviation="3.325"/>
    </filter>
    <filter id="e" x="0.35" y="-9.9" width="28.05" height="28.05" filterUnits="userSpaceOnUse">
      <feGaussianBlur stdDeviation="3.325"/>
    </filter>
  </defs>
</svg>